<?xml version="1.0" standalone="no"?>
<!DOCTYPE svg PUBLIC "-//W3C//DTD SVG 20010904//EN"
 "http://www.w3.org/TR/2001/REC-SVG-20010904/DTD/svg10.dtd">
<svg version="1.0" xmlns="http://www.w3.org/2000/svg"
 width="16.000000pt" height="16.000000pt" viewBox="0 0 16.000000 16.000000"
 preserveAspectRatio="xMidYMid meet">
<metadata>
Created by potrace 1.11, written by Peter Selinger 2001-2013
</metadata>
<g transform="translate(0.000000,16.000000) scale(0.006400,-0.006400)"
fill="#000000" stroke="none">
<path d="M1765 2117 l-140 -92 -1 -687 -1 -688 26 5 c61 11 91 18 169 42 46
13 85 30 88 36 2 7 3 342 2 744 l-3 733 -140 -93z"/>
<path d="M1360 1856 c-8 -7 -67 -46 -130 -86 -63 -40 -117 -75 -119 -76 -3 -3
-5 -1024 -2 -1072 1 -10 30 -13 136 -11 76 1 139 7 142 12 5 8 8 1114 4 1225
-1 25 -10 28 -31 8z"/>
<path d="M733 1447 l-143 -92 0 -337 0 -337 43 -12 c23 -6 53 -13 67 -15 14
-3 49 -9 79 -14 30 -6 64 -10 76 -10 l22 0 0 455 c0 250 -1 455 -1 455 -1 0
-65 -42 -143 -93z"/>
<path d="M1960 1476 c0 -4 26 -18 57 -32 144 -64 268 -168 310 -261 54 -118
22 -228 -99 -338 -159 -144 -464 -250 -812 -283 -94 -9 -381 -8 -479 1 -378
35 -715 162 -849 319 -24 27 -53 68 -66 91 l-23 42 5 -84 c5 -99 38 -175 111
-259 165 -186 500 -328 878 -369 89 -10 419 -10 507 -1 466 52 842 241 962
485 30 62 33 76 33 158 0 85 -3 96 -37 166 -45 90 -121 170 -233 243 -111 73
-265 143 -265 122z"/>
</g>
</svg>
